<svg id="Layer_1" data-name="Layer 1" xmlns="http://www.w3.org/2000/svg" viewBox="0 0 296.53 27.47"><defs><style>.cls-1{isolation:isolate;}.cls-2{fill:#56963e;}</style></defs><g class="cls-1"><path class="cls-2" d="M169.11,212a9.17,9.17,0,0,0,7.59-2.92,7.21,7.21,0,0,1-3.11,2.94,9.93,9.93,0,0,1-4.63,1.08,12.91,12.91,0,0,1-6.74-1.84,13.44,13.44,0,0,1-4.89-5,14,14,0,0,1,0-13.77,13.44,13.44,0,0,1,4.89-5,12.91,12.91,0,0,1,6.74-1.84,11,11,0,0,1,5.24,1.55.54.54,0,0,0,.56.12,1,1,0,0,0,.42-.34,3,3,0,0,0,.27-.57v7.93a17.71,17.71,0,0,0-.76-2.66,18.53,18.53,0,0,0-1.25-2.64,6.6,6.6,0,0,0-1.94-2.12,4.39,4.39,0,0,0-2.54-.82A6.18,6.18,0,0,0,164.5,188a11.37,11.37,0,0,0-2.85,4.86,21.85,21.85,0,0,0-.93,6.54,18.6,18.6,0,0,0,1,6.3,10.53,10.53,0,0,0,2.9,4.46A7.4,7.4,0,0,0,169.11,212Z" transform="translate(-155.52 -185.62)"/><path class="cls-2" d="M199.13,210.09a3.26,3.26,0,0,0,.72,1.07,3.35,3.35,0,0,0,.89.66c.29.14.57.29.83.44a1.85,1.85,0,0,1,.52.38h-8.84a2.18,2.18,0,0,1,.36-.38,4.13,4.13,0,0,0,.43-.46,1.56,1.56,0,0,0,.25-.66,1.61,1.61,0,0,0-.21-1l-2.31-5.5h-9.15l-1.94,5.5a1.82,1.82,0,0,0-.15,1.09,1.57,1.57,0,0,0,.29.66,4.23,4.23,0,0,0,.47.44,1.92,1.92,0,0,1,.38.36h-4.25a2.38,2.38,0,0,1,.7-.44,5.69,5.69,0,0,0,1.2-.8,2.91,2.91,0,0,0,.87-1.31l8.46-24h.46Zm-16.32-6h8.77l-4.75-11.46Z" transform="translate(-155.52 -185.62)"/><path class="cls-2" d="M227.09,186.07a1.17,1.17,0,0,1-.41.36c-.23.14-.45.28-.65.42a2.12,2.12,0,0,0-.57.66,2.28,2.28,0,0,0-.26,1.11v21.47a2,2,0,0,0,.4,1.31,2.86,2.86,0,0,0,.91.8,1.58,1.58,0,0,1,.58.44h-8.53a2.18,2.18,0,0,1,.62-.44,2.7,2.7,0,0,0,.89-.8,2.1,2.1,0,0,0,.38-1.31V199.81H209.71v10.28a2.16,2.16,0,0,0,.38,1.31,2.73,2.73,0,0,0,.9.8,2.18,2.18,0,0,1,.62.44h-8.54a2.46,2.46,0,0,1,.63-.44,2.7,2.7,0,0,0,.89-.8,2.16,2.16,0,0,0,.38-1.31V188.62a2.28,2.28,0,0,0-.25-1.11,1.71,1.71,0,0,0-.57-.66l-.64-.42a1.82,1.82,0,0,1-.44-.36h8.54a2.18,2.18,0,0,1-.62.44,2.73,2.73,0,0,0-.9.8,2.14,2.14,0,0,0-.38,1.31v10.73h10.74V188.62a2.53,2.53,0,0,0-.15-.92,1.7,1.7,0,0,0-.4-.62,2.09,2.09,0,0,0-.51-.4,4.61,4.61,0,0,1-.49-.32,3,3,0,0,1-.34-.29Z" transform="translate(-155.52 -185.62)"/><path class="cls-2" d="M249.86,210.09a3.6,3.6,0,0,0,.72,1.07,3.55,3.55,0,0,0,.9.66c.29.14.57.29.83.44a1.63,1.63,0,0,1,.51.38H244a2.18,2.18,0,0,1,.36-.38,4.38,4.38,0,0,0,.44-.46,1.57,1.57,0,0,0,.24-.66,1.54,1.54,0,0,0-.2-1l-2.32-5.5h-9.14l-1.94,5.5a1.68,1.68,0,0,0-.15,1.09,1.58,1.58,0,0,0,.28.66,5.7,5.7,0,0,0,.48.44,1.92,1.92,0,0,1,.38.36h-4.25a2.24,2.24,0,0,1,.7-.44,5.4,5.4,0,0,0,1.19-.8,2.85,2.85,0,0,0,.88-1.31l8.46-24h.46Zm-16.31-6h8.76l-4.74-11.46Z" transform="translate(-155.52 -185.62)"/><path class="cls-2" d="M267.55,186.07h4.36a1.52,1.52,0,0,1-.74.44,6.77,6.77,0,0,0-1.4.78,4,4,0,0,0-1.24,1.33L261.82,200v10.09a2.1,2.1,0,0,0,.38,1.31,2.7,2.7,0,0,0,.89.8,2.18,2.18,0,0,1,.62.44h-8.53a1.58,1.58,0,0,1,.58-.44,2.89,2.89,0,0,0,.92-.8,2.1,2.1,0,0,0,.39-1.31V200l-6.75-11.38a3.66,3.66,0,0,0-1.2-1.28,10,10,0,0,0-1.42-.79,1.86,1.86,0,0,1-.76-.48h8.84a2,2,0,0,1-.3.36,3.46,3.46,0,0,0-.4.5,1.05,1.05,0,0,0-.09.66,2.69,2.69,0,0,0,.34,1l6.18,10.89,6.42-10.89a3.72,3.72,0,0,0,.4-.86,1.08,1.08,0,0,0,0-.62,2,2,0,0,0-.21-.42,3,3,0,0,0-.31-.34A2.48,2.48,0,0,1,267.55,186.07Z" transform="translate(-155.52 -185.62)"/><path class="cls-2" d="M287.85,210.09a3.6,3.6,0,0,0,.72,1.07,3.51,3.51,0,0,0,.89.66c.29.14.57.29.84.44a1.93,1.93,0,0,1,.51.38H282a2.18,2.18,0,0,1,.36-.38,5.75,5.75,0,0,0,.44-.46,1.57,1.57,0,0,0,.24-.66,1.55,1.55,0,0,0-.21-1l-2.31-5.5h-9.15l-1.93,5.5a1.68,1.68,0,0,0-.15,1.09,1.58,1.58,0,0,0,.28.66,4.23,4.23,0,0,0,.47.44,1.66,1.66,0,0,1,.38.36h-4.25a2.34,2.34,0,0,1,.71-.44,5.4,5.4,0,0,0,1.19-.8,2.76,2.76,0,0,0,.87-1.31l8.47-24h.45Zm-16.32-6h8.77l-4.74-11.46Z" transform="translate(-155.52 -185.62)"/><path class="cls-2" d="M302.54,212.18a7.6,7.6,0,0,0,2.63-.43,8.48,8.48,0,0,0,2-1,7.57,7.57,0,0,0,1.53-1.56,15.3,15.3,0,0,0,1.16-1.68c.28-.48.58-1.08.91-1.79l-1.59,6.95H291.8a2.18,2.18,0,0,1,.62-.44,2.7,2.7,0,0,0,.89-.8,2.1,2.1,0,0,0,.38-1.31V188.62a2.39,2.39,0,0,0-.24-1.11,1.89,1.89,0,0,0-.57-.66l-.65-.42a1.73,1.73,0,0,1-.43-.36h16.77l1.25,6-.23-.38c-.43-.73-.76-1.28-1-1.65a13,13,0,0,0-1.08-1.37,5.14,5.14,0,0,0-1.41-1.17,8.31,8.31,0,0,0-1.76-.65,9.49,9.49,0,0,0-2.41-.28h-3.49v12h4.13a1.58,1.58,0,0,0,1.27-.61,4.29,4.29,0,0,0,.8-1.42,3.3,3.3,0,0,1,.44-1v6.49a2.36,2.36,0,0,1-.36-.7c-.14-.37-.28-.71-.42-1a2.64,2.64,0,0,0-.66-.87,1.6,1.6,0,0,0-1.1-.4h-4.1v13.13Z" transform="translate(-155.52 -185.62)"/><path class="cls-2" d="M327.62,212.18a9,9,0,0,0,2.41-.3,8.8,8.8,0,0,0,1.76-.67A5.14,5.14,0,0,0,333.2,210a13,13,0,0,0,1.08-1.37c.24-.37.57-.92,1-1.65l.22-.38-1.25,6H312.74a2.46,2.46,0,0,1,.63-.44,2.7,2.7,0,0,0,.89-.8,2.16,2.16,0,0,0,.38-1.31V188.62a2.28,2.28,0,0,0-.25-1.11,1.78,1.78,0,0,0-.56-.66l-.65-.42a1.82,1.82,0,0,1-.44-.36h8.54a2.18,2.18,0,0,1-.62.44,2.73,2.73,0,0,0-.9.8,2.14,2.14,0,0,0-.38,1.31v23.56Zm18-2.09a2.16,2.16,0,0,0,.37,1.31,2.83,2.83,0,0,0,.9.8,2.18,2.18,0,0,1,.62.44H339a1.14,1.14,0,0,1,.42-.36l.65-.42a2.06,2.06,0,0,0,.57-.67,2.21,2.21,0,0,0,.26-1.1V199.81H330.12v4a2,2,0,0,0,.4,1.29,3.43,3.43,0,0,0,.91.8,1.63,1.63,0,0,1,.59.46h-8.54a2.62,2.62,0,0,1,.63-.46,3.07,3.07,0,0,0,.89-.8,2,2,0,0,0,.38-1.29V188.62a2.53,2.53,0,0,0-.15-.92,1.7,1.7,0,0,0-.4-.62,2.09,2.09,0,0,0-.51-.4,4.61,4.61,0,0,1-.49-.32,3.34,3.34,0,0,1-.35-.29H332a1.56,1.56,0,0,1-.59.44,3,3,0,0,0-.91.8,2.09,2.09,0,0,0-.4,1.31v10.73H340.9V188.62a2.28,2.28,0,0,0-.26-1.11,2.12,2.12,0,0,0-.57-.66l-.65-.42a1.14,1.14,0,0,1-.42-.36h8.54a1.56,1.56,0,0,1-.45.36c-.23.14-.45.28-.65.42a2,2,0,0,0-.55.66,2.39,2.39,0,0,0-.24,1.11Z" transform="translate(-155.52 -185.62)"/><path class="cls-2" d="M370.2,210.09a3.6,3.6,0,0,0,.72,1.07,3.35,3.35,0,0,0,.89.66c.29.14.57.29.84.44a1.93,1.93,0,0,1,.51.38h-8.84a2.18,2.18,0,0,1,.36-.38,4.13,4.13,0,0,0,.43-.46,1.56,1.56,0,0,0,.25-.66,1.61,1.61,0,0,0-.21-1l-2.31-5.5h-9.15l-1.94,5.5a1.82,1.82,0,0,0-.15,1.09,1.57,1.57,0,0,0,.29.66,4.23,4.23,0,0,0,.47.44,1.92,1.92,0,0,1,.38.36h-4.25a2.38,2.38,0,0,1,.7-.44,5.44,5.44,0,0,0,1.2-.8,2.91,2.91,0,0,0,.87-1.31l8.46-24h.46Zm-16.32-6h8.77l-4.75-11.46Z" transform="translate(-155.52 -185.62)"/><path class="cls-2" d="M404,186.07a1.14,1.14,0,0,1-.42.36c-.23.14-.44.28-.64.42a1.76,1.76,0,0,0-.55.66,2.28,2.28,0,0,0-.25,1.11v21.47a2.16,2.16,0,0,0,.38,1.31,2.7,2.7,0,0,0,.89.8,2.46,2.46,0,0,1,.63.44h-8.58a2.46,2.46,0,0,1,.63-.44,2.7,2.7,0,0,0,.89-.8,2.16,2.16,0,0,0,.38-1.31v-22.8l-9.94,25.35H387L376.5,189v21.13a2,2,0,0,0,.4,1.31,2.76,2.76,0,0,0,.91.8,1.58,1.58,0,0,1,.58.44h-4.25a2.46,2.46,0,0,1,.63-.44,2.7,2.7,0,0,0,.89-.8,2.1,2.1,0,0,0,.38-1.31V188.62a2.28,2.28,0,0,0-.25-1.11,1.78,1.78,0,0,0-.56-.66l-.65-.42a2,2,0,0,1-.44-.36H380l9.33,20.57,8.05-20.57Z" transform="translate(-155.52 -185.62)"/><path class="cls-2" d="M414.86,186.07a2.18,2.18,0,0,1-.62.44,2.73,2.73,0,0,0-.9.8,2.14,2.14,0,0,0-.38,1.31v21.47a2.16,2.16,0,0,0,.38,1.31,2.73,2.73,0,0,0,.9.8,2.18,2.18,0,0,1,.62.44h-8.54a1.82,1.82,0,0,1,.44-.36l.65-.42a1.74,1.74,0,0,0,.56-.67,2.21,2.21,0,0,0,.25-1.1V188.62a2.14,2.14,0,0,0-.38-1.31,2.7,2.7,0,0,0-.89-.8,2.46,2.46,0,0,1-.63-.44Z" transform="translate(-155.52 -185.62)"/><path class="cls-2" d="M427.73,186.07a13.5,13.5,0,0,1,6.88,1.79,12.68,12.68,0,0,1,4.82,4.82,13.74,13.74,0,0,1,0,13.35,12.68,12.68,0,0,1-4.82,4.82,13.5,13.5,0,0,1-6.88,1.79H417.14a1.64,1.64,0,0,1,.44-.36l.64-.42a1.76,1.76,0,0,0,.57-.67,2.32,2.32,0,0,0,.25-1.1V188.62a2.39,2.39,0,0,0-.25-1.11,1.8,1.8,0,0,0-.57-.66l-.64-.42a1.64,1.64,0,0,1-.44-.36Zm0,26.07a6.71,6.71,0,0,0,3-.66,6.79,6.79,0,0,0,2.31-1.86,10.93,10.93,0,0,0,1.63-2.83,17.05,17.05,0,0,0,1-3.51,23.69,23.69,0,0,0,.32-3.93,21.62,21.62,0,0,0-.87-6.33,10.5,10.5,0,0,0-2.79-4.67,6.42,6.42,0,0,0-4.57-1.82h-4v25.61Z" transform="translate(-155.52 -185.62)"/><path class="cls-2" d="M452.05,186.07a2.18,2.18,0,0,1-.62.44,2.73,2.73,0,0,0-.9.8,2.14,2.14,0,0,0-.38,1.31v21.47a2.16,2.16,0,0,0,.38,1.31,2.73,2.73,0,0,0,.9.8,2.18,2.18,0,0,1,.62.44h-8.54a1.82,1.82,0,0,1,.44-.36l.64-.42a1.67,1.67,0,0,0,.57-.67,2.21,2.21,0,0,0,.25-1.1V188.62a2.14,2.14,0,0,0-.38-1.31,2.7,2.7,0,0,0-.89-.8,2.46,2.46,0,0,1-.63-.44Z" transform="translate(-155.52 -185.62)"/></g></svg>